<svg xmlns="http://www.w3.org/2000/svg" viewBox="0 0 1200 1200">
  <path d="m660 243.6v-63.602h60v-120h-240v120h60v63.602c-219.6 30-390 218.4-390 446.4 0 248.4 201.6 450 450 450s450-201.6 450-450c0-228-170.4-416.4-390-446.4zm-60 776.4c-182.4 0-330-147.6-330-330s147.6-330 330-330 330 147.6 330 330-147.6 330-330 330z" fill="#2d6a4f"/>
  <path d="m151.2 247.2 85.199 84c48-49.199 104.4-86.398 168-112.8l-45.598-110.4c-78 32.398-148.8 79.199-207.6 139.2z" fill="#2d6a4f"/>
  <path d="m1042.8 241.2c-58.801-57.598-126-102-201.6-133.2l-45.602 110.4c61.199 25.199 116.4 61.199 163.2 108z" fill="#2d6a4f"/>
  <path d="m642.48 732.32-84.863-84.852 179.89-179.91 84.863 84.852z" fill="#2d6a4f"/>
</svg>
